HIERARCHY
ROOT Hips
{
  OFFSET 1.44925e-005 102.336 -0.101585
  CHANNELS 6 Xposition Yposition Zposition Zrotation Xrotation Yrotation
  JOINT LeftUpLeg
  {
    OFFSET 8.9458 -8.66707 0.101652
    CHANNELS 3 Zrotation Xrotation Yrotation
    JOINT LeftLeg
    {
      OFFSET 0 -44.4227 1.3727
      CHANNELS 3 Zrotation Xrotation Yrotation
      JOINT LeftFoot
      {
        OFFSET -0.253549 -42.0924 -1.46059
        CHANNELS 3 Zrotation Xrotation Yrotation
        JOINT LeftToes
        {
          OFFSET -0.04 -4.41509 8.4991
          CHANNELS 3 Zrotation Xrotation Yrotation
          End Site
          {
            OFFSET 0.08 -0.047448 9.77979
          }
        }
      }
    }
  }
  JOINT Spine
  {
    OFFSET 0 11.8905 0
    CHANNELS 3 Zrotation Xrotation Yrotation
    JOINT Spine1
    {
      OFFSET 0 25.6574 0.127663
      CHANNELS 3 Zrotation Xrotation Yrotation
      JOINT RightShoulder
      {
        OFFSET -8.99 -0.362252 -0.22
        CHANNELS 3 Zrotation Xrotation Yrotation
        JOINT RightArm
        {
          OFFSET -10.2827 -0.00338 0.322123
          CHANNELS 3 Zrotation Xrotation Yrotation
          JOINT RightForeArm
          {
            OFFSET -26.364 0.099144 -1.42434
            CHANNELS 3 Zrotation Xrotation Yrotation
            JOINT RightHand
            {
              OFFSET -22.0324 0.085362 1.02216
              CHANNELS 3 Zrotation Xrotation Yrotation
              End Site
              {
                OFFSET -13.3284 -0.6 1.50291
              }
            }
          }
        }
      }
      JOINT LeftShoulder1
      {
        OFFSET 8.99 -0.362252 -0.22
        CHANNELS 3 Zrotation Xrotation Yrotation
        JOINT LeftArm
        {
          OFFSET 10.2827 -0.00337999 0.322123
          CHANNELS 3 Zrotation Xrotation Yrotation
          JOINT LeftForeArm
          {
            OFFSET 26.2597 0.099144 -1.42434
            CHANNELS 3 Zrotation Xrotation Yrotation
            JOINT LeftHand
            {
              OFFSET 22.0902 0.085362 1.02216
              CHANNELS 3 Zrotation Xrotation Yrotation
              End Site
              {
                OFFSET 13.419 -0.6 1.50291
              }
            }
          }
        }
      }
      JOINT Head
      {
        OFFSET 0 8.73416 0.011341
        CHANNELS 3 Zrotation Xrotation Yrotation
        End Site
        {
          OFFSET -0.29 12.7742 2.51395
        }
      }
    }
  }
  JOINT RightUpLeg
  {
    OFFSET -8.9458 -8.66707 0.101652
    CHANNELS 3 Zrotation Xrotation Yrotation
    JOINT RightLeg
    {
      OFFSET 0 -44.4227 1.3727
      CHANNELS 3 Zrotation Xrotation Yrotation
      JOINT RightFoot
      {
        OFFSET 0.253549 -42.0924 -1.46059
        CHANNELS 3 Zrotation Xrotation Yrotation
        JOINT RightToes
        {
          OFFSET 0.04 -4.41509 8.4991
          CHANNELS 3 Zrotation Xrotation Yrotation
          End Site
          {
            OFFSET -0.08 -0.137448 9.77979
          }
        }
      }
    }
  }
}
MOTION
Frames:	19
Frame Time:	0.0333333
38.546 98.775 -4.82588 -9.21445 -0.215609 -87.8779 -0.366331 -25.9789 -4.36998 1.1476 44.347 15.6552 -13.1902 -13.9169 -0.668564 -1.34624e-009 8.75209e-006 -1.46858e-008 12.2291 -2.40835 5.71566 -13.8065 -2.48459 7.93494 33.7227 1.66188 0.126444 37.6872 -7.61579 30.2906 5.71951 19.4603 17.7249 -10.3804 9.35074 1.20198 -41.1713 3.34638 -3.53211 -19.8797 -16.3839 34.9848 -6.56918 37.7004 -10.9895 5.82328 9.61819 -0.917488 -4.41789 8.25623 -12.8008 3.21701 12.6423 -6.67121 1.01803 19.4172 -14.569 2.43114 -25.7395 0.103853 0.0462048 0.000530889 0.662642 
36.7411 98.6355 -4.72613 -8.86746 -0.209689 -88.2809 -0.231295 -24.6982 -3.99971 1.14346 37.077 17.9157 -11.9023 -11.2254 -0.325773 -1.34624e-009 8.75209e-006 -1.46858e-008 11.7759 -2.64408 5.85976 -14.0336 -2.67623 7.96994 33.6793 1.66431 0.137254 37.7119 -6.1313 30.6219 5.74433 19.5465 17.7105 -10.8234 9.33479 1.09087 -41.21 3.35198 -3.53774 -18.9587 -18.0471 35.2904 -7.16256 39.1016 -9.67423 5.82328 9.61819 -0.917488 -4.36046 8.12274 -12.0879 3.07794 14.0004 -6.69923 1.0158 18.3246 -14.0025 2.75571 -26.097 0.16401 0.0462048 0.000530889 0.662642 
34.8124 98.3283 -4.50211 -8.49611 -0.144263 -88.4585 -0.281631 -23.6441 -3.64542 1.16459 32.2941 19.9511 -10.1967 -9.46745 -0.119836 -1.34624e-009 8.75209e-006 -1.46858e-008 11.1819 -3.06186 5.77309 -13.8785 -2.74168 7.77826 33.8629 1.67409 0.14481 37.8426 -5.08022 30.5422 5.76075 20.1814 17.4493 -10.9783 9.33861 0.94476 -41.5558 3.39256 -3.56778 -18.187 -19.5319 35.0968 -7.82349 40.4369 -8.27181 5.82328 9.61819 -0.917488 -4.1136 7.79195 -11.2661 2.9471 15.2886 -6.85278 1.03832 17.547 -13.47 3.26928 -26.8153 0.267172 0.0462048 0.000530889 0.662642 
32.707 97.9124 -4.13588 -8.17513 0.0220286 -88.6327 -0.455429 -22.5371 -3.57988 1.17704 29.969 21.2247 -8.83654 -8.9959 -0.0649877 -1.34624e-009 8.75209e-006 -1.46858e-008 10.783 -3.89072 5.67565 -13.6151 -2.21876 7.63953 34.1816 1.68571 0.147333 38.2618 -4.92377 29.9984 5.69636 21.8591 16.8644 -10.8477 9.33475 1.07598 -42.1525 3.46042 -3.61393 -17.7788 -20.6244 34.1092 -8.44474 41.4015 -7.05162 5.82328 9.61819 -0.917488 -3.66398 7.14679 -10.5148 2.82203 16.6076 -7.09689 0.986414 17.0896 -12.8323 4.02551 -27.5636 0.422159 0.0462048 0.000530889 0.662642 
30.4263 97.476 -3.63652 -7.92727 0.250147 -89.124 -0.648243 -21.3458 -3.54665 1.19666 29.4683 22.0096 -7.44146 -8.85788 -0.0414574 -1.34624e-009 8.75209e-006 -1.46858e-008 10.514 -4.81531 5.65187 -13.3478 -1.57261 7.5906 34.5195 1.69651 0.14782 39.0642 -5.53916 28.9636 5.86523 24.5927 15.6576 -10.5906 9.31702 1.46253 -42.5902 3.51052 -3.64736 -18.0373 -21.3122 32.6816 -8.81845 41.8661 -6.36658 5.82328 9.61819 -0.917488 -3.15824 6.41148 -9.70178 2.5658 18.053 -7.35215 0.752656 16.7356 -11.7673 5.11499 -28.1473 0.644366 0.0462048 0.000530889 0.662642 
28.0112 97.0529 -3.01522 -7.70087 0.202923 -89.725 -1.09818 -20.662 -3.36838 1.23375 30.6879 22.6219 -5.588 -8.81326 -0.0184327 -1.34624e-009 8.75209e-006 -1.46858e-008 9.88879 -5.35918 5.48727 -12.8595 -1.66433 7.33323 34.8203 1.70691 0.146882 40.3411 -6.76913 27.3327 6.59255 28.2021 13.6189 -10.4389 9.30028 1.77666 -42.7877 3.53535 -3.66661 -18.8176 -21.5612 31.2508 -8.93025 41.9618 -6.24907 5.82328 9.61819 -0.917488 -2.78156 6.04508 -8.62597 1.97451 19.4922 -7.67553 0.349799 16.5541 -10.3241 6.58705 -28.6234 0.946676 0.0462048 0.000530889 0.662642 
25.5004 96.66 -2.27217 -7.6013 -0.070085 -90.0744 -2.15386 -20.547 -3.59301 1.29445 33.3713 23.271 -4.0572 -9.7931 -0.0320704 -1.34624e-009 8.75209e-006 -1.46858e-008 8.83836 -5.37147 5.04719 -12.2022 -2.51302 6.78698 35.1132 1.71839 0.145129 42.0928 -9.06346 24.8505 7.74452 32.4957 10.9446 -10.4715 9.29641 1.80041 -43.1909 3.5803 -3.69366 -19.4565 -21.3048 29.4142 -9.21117 42.2547 -6.04398 5.82328 9.61819 -0.917488 -2.50983 6.31964 -7.44493 1.02256 20.8331 -8.16688 -0.188404 16.945 -8.91893 8.29903 -28.7792 1.28652 0.0462048 0.000530889 0.662642 
22.9352 96.3854 -1.42534 -7.88249 -0.555673 -90.1595 -3.58429 -19.9048 -4.28866 1.36179 36.053 24.0392 -3.57122 -12.0621 -0.0828333 -1.34624e-009 8.75209e-006 -1.46858e-008 8.06786 -5.03427 4.63962 -11.9636 -3.27136 6.34049 35.4799 1.73287 0.143171 43.9666 -12.9857 21.446 9.00818 37.1781 7.87557 -10.3987 9.32429 1.51231 -44.0124 3.66275 -3.72891 -19.5917 -20.6106 26.4126 -10.097 43.2187 -5.0935 5.82328 9.61819 -0.917488 -2.12461 7.14299 -6.49924 -0.0925365 22.2439 -8.53503 -0.945752 18.032 -7.65259 10.3627 -28.182 1.6311 0.0462048 0.000530889 0.662642 
20.4067 96.3764 -0.532616 -8.5819 -1.21586 -90.6606 -5.03399 -17.8595 -4.48995 1.40443 37.0903 24.6919 -3.65234 -14.4669 -0.14835 -1.34624e-009 8.75209e-006 -1.46858e-008 7.58017 -4.64216 4.47506 -12.3347 -3.40592 6.22673 35.9101 1.7489 0.141603 45.3111 -17.9252 17.5255 10.4635 41.7765 4.13901 -9.9202 9.39731 0.935154 -44.8449 3.73918 -3.74867 -19.7135 -19.6928 22.3338 -11.4044 44.4572 -3.66562 5.82328 9.61819 -0.917488 -1.61867 8.27193 -5.73029 -1.57113 23.6305 -7.5803 -1.72651 19.7436 -6.97444 13.3577 -26.7088 2.01811 0.0462048 0.000530889 0.662642 
18.021 96.6561 0.3442 -9.37013 -1.83511 -91.613 -6.0783 -14.9204 -3.53382 1.40582 36.3347 24.9443 -3.61609 -16.0139 -0.186812 -1.34624e-009 8.75209e-006 -1.46858e-008 6.80555 -4.34909 4.379 -12.4429 -3.27118 6.04198 36.2455 1.75995 0.138062 45.5676 -21.702 13.5164 12.2056 45.3767 -0.338875 -9.34712 9.47317 0.325767 -45.3285 3.78141 -3.75516 -20.4399 -18.8201 18.0627 -12.3798 45.1042 -2.73873 5.82328 9.61819 -0.917488 -1.33515 9.49645 -4.67952 -3.45524 24.0146 -3.69515 -1.58328 23.0319 -8.46548 17.0445 -24.413 2.31106 0.0462048 0.000530889 0.662642 
15.8267 97.085 1.17151 -9.91849 -2.37778 -92.4599 -6.90853 -12.0604 -2.18929 1.37837 34.775 24.8485 -3.55309 -16.9226 -0.205856 -1.34624e-009 8.75209e-006 -1.46858e-008 5.10004 -4.12087 3.91731 -11.3141 -3.34229 5.27196 36.3968 1.76146 0.127961 44.7138 -23.5445 9.44078 13.8635 47.9067 -4.428 -9.29275 9.49007 0.124514 -45.5845 3.80573 -3.76218 -21.7547 -18.1 14.0505 -12.5473 44.8212 -2.86993 5.82328 9.61819 -0.917488 -1.42631 10.5624 -3.1452 -5.36049 22.1803 0.102313 -0.686678 29.3497 -10.4849 19.5356 -20.706 2.04902 0.0462048 0.000530889 0.662642 
13.7897 97.5553 1.93778 -10.2982 -2.7788 -92.919 -7.7258 -9.38094 -1.43612 1.34795 32.9418 24.8169 -3.68726 -17.6801 -0.237481 -1.34624e-009 8.75209e-006 -1.46858e-008 2.64286 -3.76316 2.96247 -8.93839 -3.64956 3.95305 36.4695 1.75716 0.110699 42.8104 -24.6473 4.97339 14.6886 49.6819 -6.26584 -9.65366 9.45777 0.325996 -45.7417 3.81979 -3.76475 -23.3297 -17.1755 10.0101 -12.0053 43.701 -3.98202 5.82328 9.61819 -0.917488 -1.5079 11.1653 -1.41824 -6.76645 18.3765 0.520367 -0.901634 38.1468 -10.6044 19.3722 -14.909 1.05136 0.0462048 0.000530889 0.662642 
11.9184 97.9348 2.6038 -10.723 -3.1786 -93.3923 -8.62482 -6.72461 -1.03013 1.33117 31.0074 25.0327 -3.84963 -18.3158 -0.270174 -1.34624e-009 8.75209e-006 -1.46858e-008 -0.340275 -3.05954 1.85804 -6.03881 -3.938 2.4512 36.5115 1.75243 0.0970015 40.0462 -24.6277 0.036227 13.8381 49.2895 -4.6648 -9.74108 9.44173 0.481256 -45.6314 3.80444 -3.75248 -24.8928 -15.2634 5.90214 -10.8421 41.5168 -6.10268 5.82328 9.61819 -0.917488 -1.21244 11.2317 0.22441 -7.81475 13.5825 0.946549 -1.09991 47.5546 -11.7636 17.4299 -9.15199 0.0501233 0.0462048 0.000530889 0.662642 
10.1762 98.1862 3.15367 -11.2141 -3.56509 -94.0725 -9.39315 -4.20816 -0.155761 1.30885 29.2407 24.9786 -3.907 -18.8109 -0.290198 -1.34624e-009 8.75209e-006 -1.46858e-008 -3.65024 -2.13988 0.77731 -2.97556 -4.14005 0.860383 36.3567 1.74716 0.0981784 37.1844 -23.8596 -4.75868 12.4119 47.1808 -1.55084 -9.36759 9.47084 0.340225 -45.2512 3.76042 -3.72681 -25.9586 -11.7408 2.25522 -9.12603 37.764 -9.22461 5.82328 9.61819 -0.917488 -0.723395 11.0792 1.82735 -8.49208 8.67225 1.62605 -1.39255 55.9118 -13.0122 15.6285 -6.80296 -0.289357 0.0462048 0.000530889 0.662642 
8.46606 98.4088 3.61969 -11.6315 -3.73195 -94.5815 -9.75555 -1.89808 1.06679 1.18932 27.6914 24.3411 -3.95105 -19.3154 -0.309691 -1.34624e-009 8.75209e-006 -1.46858e-008 -6.83494 -1.30803 -0.410671 0.207749 -4.35996 -0.88721 35.928 1.73375 0.104034 34.6062 -23.2633 -8.92892 11.4383 45.1161 0.818699 -8.95849 9.50326 0.166087 -44.8756 3.7133 -3.69384 -25.9867 -7.01493 -0.640378 -7.29086 32.8235 -12.6946 5.82328 9.61819 -0.917488 -0.373101 11.1695 3.40906 -8.59938 4.01398 2.1887 -1.76665 62.3078 -13.9571 14.8028 -7.99572 -0.129993 0.0462048 0.000530889 0.662642 
6.7496 98.6079 4.0247 -11.9034 -3.63331 -94.7688 -9.75861 0.22709 1.86424 0.87002 26.3111 23.7455 -3.96358 -19.9668 -0.330389 -1.34624e-009 8.75209e-006 -1.46858e-008 -9.3926 -0.663368 -1.62797 3.05499 -4.59344 -2.59596 35.4394 1.71069 0.0920203 32.0826 -23.4993 -12.5974 10.7806 43.9459 2.01546 -8.79109 9.50607 0.243113 -44.4454 3.6561 -3.64875 -25.1249 -2.51075 -3.08481 -5.74809 28.2409 -15.7096 5.82328 9.61819 -0.917488 -0.100292 11.7015 4.73174 -8.17383 -0.450535 2.5033 -2.15167 66.5416 -14.6811 14.4978 -10.1032 0.12637 0.0462048 0.000530889 0.662642 
5.02172 98.7499 4.37675 -12.0671 -3.37476 -94.9531 -9.6093 2.25082 2.34499 0.441368 24.9416 23.5565 -3.77378 -20.6553 -0.328889 -1.34624e-009 8.75209e-006 -1.46858e-008 -11.0961 -0.212303 -2.61634 5.09535 -4.76621 -3.93725 35.0883 1.68546 0.0621064 29.3764 -24.6941 -16.0511 10.2483 43.1501 2.40994 -8.80633 9.49353 0.417494 -43.5468 3.55229 -3.58219 -24.1605 0.652148 -5.36885 -4.49002 25.0504 -18.0878 5.82328 9.61819 -0.917488 0.324257 12.4567 5.58665 -7.38502 -4.79567 2.88759 -2.44922 68.8355 -15.2539 14.06 -11.4259 0.273714 0.0462048 0.000530889 0.662642 
3.29146 98.835 4.67953 -12.143 -3.07783 -95.3317 -9.43134 4.11295 2.8046 -0.0690374 23.6654 23.72 -3.516 -21.252 -0.31446 -1.34624e-009 8.75209e-006 -1.46858e-008 -12.265 0.046021 -3.31216 6.58341 -4.84078 -4.87227 34.7863 1.66413 0.0367947 26.6617 -26.3862 -19.231 9.89415 41.9229 2.20403 -8.92707 9.4911 0.365058 -42.2535 3.41465 -3.50426 -23.5461 2.19943 -7.36494 -3.35376 23.0825 -20.1444 5.82328 9.61819 -0.917488 0.837718 13.0366 6.05115 -6.43942 -8.90858 3.43856 -2.5664 69.4102 -15.6986 13.7832 -12.4819 0.387977 0.0462048 0.000530889 0.662642 
1.56025 98.8805 4.93645 -12.1381 -2.80138 -95.649 -9.25792 5.75489 3.21323 -0.535207 22.6701 23.8086 -3.42984 -21.7959 -0.317671 -1.34624e-009 8.75209e-006 -1.46858e-008 -13.3665 0.191444 -3.88606 8.14476 -4.83008 -5.64385 34.3687 1.64385 0.0238274 24.24 -28.0437 -21.9177 9.70149 40.2454 1.56763 -9.17817 9.50755 -0.0428462 -41.2633 3.31171 -3.44514 -23.0532 1.975 -8.81761 -2.33924 22.1969 -22.1796 5.82328 9.61819 -0.917488 1.22003 13.2705 6.31767 -5.5806 -12.5703 3.70956 -2.47207 68.3372 -16.0974 14.0558 -13.757 0.551936 0.0462048 0.000530889 0.662642 
